<?xml version="1.0" encoding="utf-8"?>
<!-- Generator: Adobe Illustrator 21.1.0, SVG Export Plug-In . SVG Version: 6.00 Build 0)  -->
<svg version="1.1" id="Layer_1" xmlns="http://www.w3.org/2000/svg" xmlns:xlink="http://www.w3.org/1999/xlink" x="0px" y="0px"
	 viewBox="0 0 140 140" style="enable-background:new 0 0 140 140;" xml:space="preserve">
<style type="text/css">
	.st0{fill:#9F9F9F;}
	.st1{fill:#FFFFFF;}
	.st2{clip-path:url(#SVGID_2_);fill-rule:evenodd;clip-rule:evenodd;fill:#FFFFFF;}
	.st3{clip-path:url(#SVGID_4_);fill-rule:evenodd;clip-rule:evenodd;fill:#FFFFFF;}
	.st4{fill-rule:evenodd;clip-rule:evenodd;fill:#FFFFFF;}
</style>
<g>
	<path class="st0" d="M136.058,60.303l-4.39-4.725c-2.873-3.092-4.214-7.391-3.636-11.65l0.884-6.509
		c1.012-7.448-3.832-14.39-10.948-15.689l-6.219-1.136c-4.069-0.743-7.582-3.4-9.518-7.2l-2.96-5.807
		c-3.386-6.645-11.224-9.296-17.715-5.993l-5.673,2.887c-3.712,1.889-8.053,1.889-11.765,0l-5.673-2.887
		C51.954-1.709,44.116,0.942,40.73,7.587l-2.96,5.807c-1.936,3.8-5.449,6.457-9.518,7.2l-6.219,1.136
		c-7.116,1.3-11.96,8.241-10.949,15.689l0.884,6.509c0.579,4.259-0.763,8.558-3.636,11.65l-4.39,4.725
		c-5.024,5.406-5.024,13.987,0,19.393l4.39,4.725c2.873,3.092,4.214,7.39,3.636,11.65l-0.884,6.509
		c-1.012,7.448,3.832,14.39,10.949,15.689l6.219,1.136c4.069,0.743,7.582,3.4,9.518,7.2l2.96,5.807
		c3.386,6.645,11.224,9.296,17.715,5.993l5.673-2.887c3.712-1.889,8.053-1.889,11.765,0l5.673,2.887
		c6.491,3.304,14.329,0.652,17.715-5.993l2.96-5.807c1.936-3.8,5.449-6.457,9.518-7.2l6.219-1.136
		c7.116-1.3,11.96-8.241,10.948-15.689l-0.884-6.509c-0.579-4.259,0.763-8.558,3.636-11.65l4.39-4.725
		C141.081,74.29,141.081,65.71,136.058,60.303z M22.159,111.167c-2.629,0-4.76-2.219-4.76-4.956c0-2.737,2.131-4.956,4.76-4.956
		c2.629,0,4.76,2.219,4.76,4.956C26.919,108.948,24.788,111.167,22.159,111.167z"/>
	<g>
		<g>
			<path class="st1" d="M48.303,72.588c0-0.449-0.16-0.799-0.481-1.05c-0.32-0.251-0.884-0.511-1.689-0.779
				c-0.807-0.269-1.465-0.528-1.977-0.779c-1.666-0.811-2.498-1.925-2.498-3.343c0-0.706,0.207-1.329,0.622-1.868
				s1.002-0.959,1.761-1.26c0.759-0.3,1.612-0.451,2.56-0.451c0.924,0,1.752,0.164,2.484,0.49s1.302,0.792,1.707,1.396
				c0.406,0.604,0.609,1.293,0.609,2.069h-3.089c0-0.519-0.16-0.922-0.48-1.208c-0.321-0.286-0.755-0.429-1.302-0.429
				c-0.554,0-0.99,0.121-1.311,0.363c-0.321,0.242-0.481,0.55-0.481,0.923c0,0.327,0.177,0.623,0.529,0.888
				c0.354,0.266,0.974,0.54,1.862,0.823c0.889,0.283,1.618,0.588,2.188,0.915c1.389,0.793,2.083,1.887,2.083,3.281
				c0,1.114-0.424,1.989-1.271,2.625c-0.848,0.637-2.01,0.954-3.486,0.954c-1.041,0-1.984-0.185-2.828-0.556
				c-0.845-0.37-1.48-0.878-1.906-1.522c-0.427-0.645-0.641-1.387-0.641-2.228h3.106c0,0.683,0.179,1.187,0.534,1.51
				c0.356,0.324,0.935,0.486,1.734,0.486c0.512,0,0.916-0.109,1.214-0.328C48.154,73.292,48.303,72.984,48.303,72.588z"/>
			<path class="st1" d="M56.29,75.975h-3.089V63.233h3.089V75.975z"/>
			<path class="st1" d="M61.541,73.612h5.393v2.362h-8.49V63.233h3.098V73.612z"/>
			<path class="st1" d="M71.407,72.509l2.56-9.275h3.459l-4.324,12.741h-3.389l-4.289-12.741h3.433L71.407,72.509z"/>
			<path class="st1" d="M86.331,70.566h-4.872v3.046h5.754v2.362h-8.852V63.233h8.869v2.372h-5.771v2.687h4.872V70.566z"/>
			<path class="st1" d="M93.25,71.468h-1.677v4.507h-3.098V63.233h5.057c1.524,0,2.716,0.335,3.574,1.005
				c0.859,0.67,1.289,1.617,1.289,2.841c0,0.886-0.181,1.62-0.543,2.203c-0.361,0.583-0.928,1.055-1.699,1.416l2.684,5.144v0.132
				h-3.318L93.25,71.468z M91.573,69.105h1.959c0.589,0,1.031-0.153,1.328-0.46c0.298-0.307,0.446-0.735,0.446-1.285
				s-0.15-0.981-0.45-1.294s-0.741-0.469-1.324-0.469h-1.959V69.105z"/>
		</g>
	</g>
	<g>
		<path class="st1" d="M34.784,39.932l-1.278,1.71l4.636,3.465l-1.026,1.373l-4.636-3.466l-1.254,1.678L30.165,43.9l3.559-4.761
			L34.784,39.932z"/>
		<path class="st1" d="M41.264,39.682l-1.658,1.665l0.652,1.229l-1.292,1.298l-3.199-6.866l1.138-1.143l6.894,3.156l-1.3,1.305
			L41.264,39.682z M38.958,40.123l1.078-1.084l-2.288-1.196L38.958,40.123z"/>
		<path class="st1" d="M48.119,34.838c-0.041,0.394-0.215,0.811-0.521,1.254c-0.307,0.443-0.704,0.843-1.194,1.198
			c-0.754,0.547-1.522,0.754-2.309,0.62c-0.785-0.135-1.492-0.602-2.121-1.4l-0.364-0.494c-0.412-0.567-0.672-1.136-0.777-1.703
			c-0.107-0.568-0.057-1.102,0.151-1.602c0.206-0.497,0.556-0.924,1.046-1.28c0.717-0.521,1.393-0.76,2.027-0.721
			c0.635,0.041,1.221,0.362,1.76,0.966l-1.337,0.969c-0.28-0.287-0.55-0.441-0.808-0.463c-0.257-0.022-0.531,0.07-0.82,0.281
			c-0.348,0.253-0.51,0.596-0.485,1.028c0.024,0.434,0.234,0.925,0.63,1.475l0.252,0.347c0.417,0.575,0.828,0.936,1.234,1.082
			c0.405,0.146,0.819,0.065,1.241-0.241c0.36-0.262,0.571-0.537,0.631-0.825l-0.647-0.894l-0.965,0.7l-0.691-0.952l2.352-1.708
			L48.119,34.838z"/>
		<path class="st1" d="M50.205,33.244l2.645-1.383l0.61,1.169l-4.163,2.177l-3.296-6.301l1.519-0.795L50.205,33.244z"/>
		<path class="st1" d="M55.673,32.196l-1.587,0.637l-2.651-6.599l1.587-0.637L55.673,32.196z"/>
		<path class="st1" d="M62.312,30.213l-1.646,0.443l-3.584-3.616l1.15,4.272l-1.656,0.445l-1.849-6.866l1.655-0.446l3.58,3.619
			l-1.15-4.272l1.65-0.445L62.312,30.213z"/>
		<path class="st1" d="M67.153,26.598l-2.678,0.312l0.196,1.688l3.163-0.368l0.152,1.311l-4.865,0.566l-0.823-7.064l4.877-0.567
			l0.152,1.314l-3.173,0.369l0.174,1.489l2.678-0.312L67.153,26.598z"/>
		<path class="st1" d="M74.97,28.528l-2.339-0.215L72.1,29.599l-1.823-0.168l3.248-6.843l1.605,0.146l1.965,7.323l-1.833-0.169
			L74.97,28.528z M73.159,27.033l1.523,0.14l-0.538-2.526L73.159,27.033z"/>
		<path class="st1" d="M83.13,28.948l1.98-4.078l1.638,0.455l-3.36,6.447l-1.712-0.477l0.168-4.161l-1.984,3.656l-1.708-0.476
			l0.446-7.257l1.643,0.457l-0.409,4.514l2.136-4.033l1.403,0.39L83.13,28.948z"/>
		<path class="st1" d="M89.166,32.905l-2.116-1.021l-0.946,1.019l-1.649-0.796l5.439-5.271l1.451,0.7l-0.723,7.547l-1.659-0.8
			L89.166,32.905z M87.995,30.871l1.377,0.663l0.381-2.555L87.995,30.871z"/>
		<path class="st1" d="M94.419,34.698l-0.763-0.528l-1.435,2.066l-1.408-0.979l4.055-5.842l2.3,1.596
			c0.692,0.481,1.127,1.011,1.306,1.59c0.177,0.578,0.07,1.147-0.319,1.708c-0.281,0.406-0.598,0.687-0.947,0.84
			c-0.351,0.152-0.759,0.19-1.224,0.112l-0.417,3.206l-0.042,0.06l-1.509-1.046L94.419,34.698z M94.408,33.085l0.892,0.619
			c0.266,0.186,0.518,0.254,0.75,0.206c0.232-0.045,0.437-0.195,0.611-0.447c0.176-0.252,0.244-0.497,0.207-0.735
			c-0.037-0.239-0.188-0.449-0.452-0.634l-0.891-0.618L94.408,33.085z"/>
		<path class="st1" d="M95.924,38.883l4.903-5.151l1.659,1.58c0.455,0.433,0.767,0.926,0.933,1.478
			c0.167,0.552,0.174,1.113,0.02,1.684c-0.154,0.571-0.451,1.091-0.894,1.56l-0.226,0.237c-0.449,0.471-0.951,0.799-1.507,0.983
			c-0.555,0.185-1.114,0.211-1.677,0.077c-0.562-0.135-1.068-0.412-1.518-0.834L95.924,38.883z M101.156,35.873l-3.081,3.238
			l0.432,0.411c0.356,0.339,0.751,0.472,1.183,0.399c0.433-0.071,0.887-0.357,1.362-0.857l0.213-0.223
			c0.473-0.497,0.734-0.963,0.784-1.397s-0.109-0.825-0.476-1.174L101.156,35.873z"/>
		<path class="st1" d="M104.111,44.955c0.198-0.153,0.299-0.343,0.301-0.568c0.002-0.227-0.074-0.562-0.229-1.007
			c-0.155-0.443-0.264-0.82-0.326-1.131c-0.206-1.006,0.003-1.751,0.629-2.234c0.312-0.242,0.657-0.363,1.036-0.367
			c0.378-0.002,0.763,0.111,1.152,0.341s0.745,0.551,1.066,0.966c0.312,0.404,0.521,0.823,0.625,1.255
			c0.104,0.433,0.092,0.841-0.038,1.225c-0.129,0.384-0.364,0.709-0.707,0.974l-1.046-1.352c0.229-0.178,0.353-0.386,0.369-0.624
			c0.019-0.237-0.066-0.477-0.251-0.716c-0.188-0.241-0.39-0.392-0.604-0.449c-0.216-0.059-0.405-0.022-0.57,0.105
			c-0.145,0.11-0.215,0.289-0.213,0.534c0.003,0.245,0.092,0.61,0.268,1.097c0.177,0.484,0.289,0.908,0.338,1.271
			c0.121,0.878-0.127,1.556-0.742,2.031c-0.492,0.381-1.022,0.495-1.59,0.342s-1.102-0.554-1.602-1.2
			c-0.353-0.455-0.591-0.932-0.713-1.428c-0.123-0.497-0.114-0.948,0.026-1.355c0.14-0.406,0.396-0.753,0.767-1.04l1.052,1.358
			c-0.302,0.234-0.463,0.484-0.485,0.751c-0.022,0.266,0.102,0.573,0.373,0.925c0.174,0.224,0.359,0.363,0.557,0.419
			C103.75,45.13,103.937,45.09,104.111,44.955z"/>
	</g>
	<g>
		<path class="st1" d="M62.962,117.051l-4.862-0.994l0.215-1.053l2.722-1.896c0.68-0.516,1.059-0.959,1.135-1.328
			c0.061-0.301,0.042-0.542-0.057-0.725c-0.1-0.184-0.273-0.301-0.521-0.351c-0.246-0.05-0.467,0.013-0.663,0.19
			c-0.195,0.177-0.325,0.423-0.39,0.735l-1.617-0.331c0.088-0.426,0.275-0.801,0.562-1.118c0.288-0.318,0.643-0.541,1.064-0.667
			c0.421-0.127,0.866-0.142,1.335-0.047c0.753,0.154,1.298,0.447,1.634,0.878c0.335,0.431,0.437,0.972,0.304,1.622
			c-0.057,0.275-0.162,0.531-0.317,0.77c-0.155,0.24-0.37,0.48-0.644,0.722c-0.273,0.242-0.699,0.554-1.274,0.933l-1.113,0.855
			l2.742,0.561L62.962,117.051z"/>
		<path class="st1" d="M69.746,114.671c-0.058,0.96-0.319,1.686-0.78,2.18c-0.463,0.493-1.086,0.716-1.869,0.669
			c-0.79-0.05-1.385-0.349-1.785-0.897c-0.4-0.55-0.571-1.301-0.514-2.254l0.08-1.296c0.058-0.959,0.318-1.686,0.78-2.18
			c0.463-0.492,1.087-0.715,1.874-0.668c0.786,0.048,1.379,0.348,1.78,0.897c0.399,0.549,0.571,1.302,0.513,2.257L69.746,114.671z
			 M68.195,113.065c0.031-0.51-0.013-0.896-0.13-1.156c-0.118-0.26-0.321-0.398-0.611-0.415c-0.282-0.019-0.495,0.087-0.638,0.312
			s-0.233,0.575-0.272,1.051l-0.11,1.813c-0.032,0.529,0.011,0.921,0.13,1.175c0.117,0.254,0.321,0.389,0.61,0.406
			c0.279,0.017,0.493-0.09,0.641-0.32c0.148-0.23,0.239-0.601,0.274-1.11L68.195,113.065z"/>
		<path class="st1" d="M74.909,117.264l-1.645,0.132l-0.42-5.239l-1.578,0.602l-0.1-1.247l3.024-1.324l0.151-0.012L74.909,117.264z"
			/>
		<path class="st1" d="M81.419,110.777c0.076,0.338,0.059,0.653-0.051,0.948c-0.11,0.294-0.294,0.552-0.552,0.771
			c0.367,0.09,0.679,0.253,0.936,0.49c0.256,0.239,0.427,0.551,0.513,0.935c0.139,0.62,0.033,1.157-0.314,1.611
			s-0.896,0.766-1.646,0.933c-0.753,0.166-1.388,0.119-1.903-0.145s-0.843-0.704-0.979-1.32c-0.083-0.372-0.061-0.723,0.066-1.051
			s0.347-0.614,0.659-0.857c-0.33-0.09-0.608-0.245-0.834-0.465s-0.376-0.498-0.45-0.835c-0.135-0.604-0.036-1.126,0.296-1.567
			s0.846-0.739,1.542-0.895c0.703-0.156,1.297-0.105,1.785,0.153S81.285,110.172,81.419,110.777z M78.977,110.571
			c-0.217,0.047-0.364,0.155-0.446,0.322c-0.082,0.166-0.095,0.375-0.038,0.626c0.056,0.248,0.157,0.436,0.306,0.562
			c0.148,0.128,0.334,0.165,0.556,0.116c0.22-0.049,0.367-0.161,0.442-0.338c0.076-0.178,0.086-0.39,0.031-0.638
			c-0.056-0.249-0.156-0.432-0.3-0.55C79.382,110.554,79.199,110.52,78.977,110.571z M80.624,114.151
			c-0.062-0.285-0.186-0.488-0.368-0.609c-0.183-0.122-0.394-0.156-0.636-0.103c-0.241,0.055-0.42,0.175-0.534,0.362
			c-0.116,0.188-0.142,0.425-0.078,0.71c0.062,0.276,0.187,0.479,0.373,0.605c0.187,0.127,0.402,0.163,0.647,0.109
			c0.238-0.054,0.412-0.176,0.523-0.368C80.663,114.667,80.688,114.431,80.624,114.151z"/>
	</g>
	<g>
		<defs>
			<polygon id="SVGID_1_" points="45.492,115.515 54.995,111.513 51.994,103.511 48.493,66.554 32.562,55.25 28.25,56.875 
				24.875,51.063 8.48,79.003 			"/>
		</defs>
		<clipPath id="SVGID_2_">
			<use xlink:href="#SVGID_1_"  style="overflow:visible;"/>
		</clipPath>
		<path class="st2" d="M88.258,30.05c-0.761,1.37-3.82,1.703-5.896,1.195c1.043-0.941,3.281-1.837,5.204-1.365L88.258,30.05
			l-0.608-0.369c-1.69-1.023-2.623-3.231-2.681-4.627C86.793,26.159,88.705,28.551,88.258,30.05L88.258,30.05z M70.045,112.892
			L70.045,112.892c0.652,0,1.179,0.523,1.179,1.17c0,0.645-0.528,1.169-1.18,1.17s-1.179-0.523-1.179-1.169
			C68.866,113.417,69.393,112.892,70.045,112.892L70.045,112.892z M85.637,28.836L85.637,28.836L85.1,28.372
			c-1.493-1.292-3.896-1.509-5.256-1.145C81.455,28.621,84.329,29.711,85.637,28.836L85.637,28.836z M54.609,28.849L54.609,28.849
			c1.307,0.874,4.182-0.218,5.794-1.613c-1.36-0.363-3.763-0.145-5.257,1.149L54.609,28.849L54.609,28.849z M67.011,114.078
			L67.011,114.078c-0.362,1.521-3.219,2.659-5.357,2.722c0.75-1.184,2.664-2.643,4.645-2.702L67.011,114.078
			c0.025-1.564-2.464-3.358-4.521-3.936c0.435,1.329,1.929,3.207,3.836,3.744L67.011,114.078L67.011,114.078z M62.564,113.491
			L62.564,113.491c0.184-1.553-2.11-3.587-4.098-4.367c0.297,1.365,1.593,3.383,3.436,4.106L62.564,113.491l-0.711-0.051
			c-1.976-0.139-4.028,1.121-4.895,2.223C59.092,115.814,62.049,114.967,62.564,113.491L62.564,113.491z M58.199,112.462
			L58.199,112.462c-0.663,1.418-3.691,1.965-5.798,1.6c0.974-1.011,3.143-2.058,5.095-1.723L58.199,112.462
			c0.34-1.527-1.736-3.781-3.633-4.755c0.156,1.389,1.242,3.526,3,4.429L58.199,112.462L58.199,112.462z M53.962,111.002
			L53.962,111.002c0.493-1.486-1.343-3.935-3.132-5.094c0.015,1.398,0.877,3.632,2.536,4.707L53.962,111.002l-0.686-0.191
			c-1.908-0.531-4.172,0.297-5.244,1.205C50.09,112.588,53.158,112.348,53.962,111.002L53.962,111.002z M49.893,109.125
			L49.893,109.125c-0.936,1.26-4.012,1.192-6.002,0.418c1.158-0.797,3.495-1.393,5.34-0.676L49.893,109.125
			c0.642-1.428-0.937-4.049-2.599-5.381c-0.127,1.392,0.504,3.701,2.045,4.937L49.893,109.125L49.893,109.125z M46.037,106.852
			L46.037,106.852c0.784-1.357-0.521-4.121-2.039-5.614c-0.268,1.372,0.126,3.734,1.533,5.116L46.037,106.852l-0.633-0.322
			c-1.761-0.9-4.147-0.54-5.38,0.138C41.924,107.638,44.978,108.012,46.037,106.852L46.037,106.852z M42.431,104.205L42.431,104.205
			c-1.171,1.048-4.171,0.37-5.964-0.784c1.296-0.551,3.705-0.671,5.366,0.399L42.431,104.205l-0.453-0.545
			c-1.26-1.518-1.412-3.906-1.006-5.244C42.331,100.053,43.348,102.933,42.431,104.205L42.431,104.205z M39.113,101.212
			c-1.271,0.926-4.187-0.048-5.854-1.377c1.344-0.418,3.754-0.297,5.298,0.934L39.113,101.212c1.041-1.175,0.322-4.142-0.864-5.907
			c-0.539,1.292-0.63,3.684,0.469,5.319L39.113,101.212L39.113,101.212L39.113,101.212z M36.115,97.902L36.115,97.902
			c-1.358,0.793-4.16-0.467-5.683-1.955c1.38-0.282,3.765,0.08,5.176,1.459L36.115,97.902c1.156-1.065,0.741-4.089-0.26-5.963
			c-0.668,1.231-1.001,3.602-0.074,5.338L36.115,97.902L36.115,97.902z M33.469,94.308L33.469,94.308
			c-1.432,0.655-4.091-0.88-5.455-2.512c1.401-0.143,3.737,0.456,5.001,1.969L33.469,94.308L33.2,93.654
			c-0.746-1.822-0.173-4.146,0.615-5.306C34.621,90.313,34.726,93.364,33.469,94.308L33.469,94.308z M31.201,90.469L31.201,90.469
			l-0.2-0.679c-0.557-1.885,0.247-4.143,1.15-5.217C32.753,86.608,32.548,89.655,31.201,90.469l-0.397-0.588
			c-1.104-1.631-3.367-2.459-4.775-2.458C27.22,89.183,29.71,90.976,31.201,90.469L31.201,90.469z M29.335,86.42L29.335,86.42
			c-1.535,0.357-3.83-1.675-4.837-3.546c1.402,0.138,3.569,1.189,4.502,2.923L29.335,86.42c1.422-0.675,1.935-3.685,1.544-5.77
			c-1.007,0.978-2.037,3.143-1.674,5.076L29.335,86.42L29.335,86.42z M27.889,82.208L27.889,82.208l-0.06-0.705
			c-0.165-1.958,1.079-4.011,2.181-4.884C30.188,78.733,29.372,81.679,27.889,82.208l-0.271-0.655
			c-0.752-1.818-2.8-3.08-4.181-3.357C24.248,80.158,26.326,82.409,27.889,82.208L27.889,82.208z M26.878,77.871l0.012-0.707
			c0.034-1.966,1.481-3.883,2.665-4.642C29.518,74.643,28.408,77.492,26.878,77.871l-0.203-0.678
			c-0.563-1.884-2.474-3.345-3.819-3.76C23.464,75.467,25.303,77.915,26.878,77.871L26.878,77.871L26.878,77.871z M26.313,73.454
			L26.313,73.454c-1.572-0.113-3.152-2.732-3.551-4.817c1.296,0.547,3.048,2.191,3.418,4.123L26.313,73.454
			c1.56-0.223,2.954-2.947,3.206-5.053c-1.255,0.636-2.888,2.398-3.122,4.35L26.313,73.454L26.313,73.454z M26.199,69.004
			c-1.553-0.27-2.859-3.034-3.043-5.147c1.233,0.673,2.81,2.483,2.981,4.443L26.199,69.004c1.574-0.067,3.238-2.637,3.702-4.708
			c-1.313,0.507-3.117,2.098-3.548,4.018L26.199,69.004L26.199,69.004L26.199,69.004z M26.536,64.565L26.536,64.565
			c-1.516-0.425-2.536-3.304-2.504-5.426c1.159,0.794,2.543,2.752,2.515,4.718L26.536,64.565c1.573,0.091,3.489-2.301,4.162-4.315
			c-1.358,0.373-3.314,1.777-3.938,3.643L26.536,64.565L26.536,64.565z M27.323,60.18l0.291-0.645
			c0.809-1.795,2.898-2.995,4.286-3.232C31.027,58.241,28.879,60.428,27.323,60.18l0.082-0.701c0.228-1.953-0.95-4.041-2.024-4.946
			C25.136,56.64,25.858,59.607,27.323,60.18L27.323,60.18L27.323,60.18z M28.551,55.898c-1.4-0.717-1.817-3.742-1.358-5.815
			c0.975,1.009,1.936,3.204,1.511,5.124L28.551,55.898c1.522,0.401,3.882-1.561,4.948-3.401c-1.405,0.096-3.605,1.082-4.592,2.787
			L28.551,55.898L28.551,55.898L28.551,55.898z M30.207,51.758L30.207,51.758c-1.32-0.854-1.428-3.905-0.761-5.921
			c0.868,1.1,1.601,3.381,0.983,5.249L30.207,51.758c1.474,0.552,4.02-1.165,5.268-2.889c-1.408-0.044-3.696,0.717-4.852,2.314
			L30.207,51.758L30.207,51.758z M32.275,47.805L32.275,47.805c1.41,0.697,4.117-0.757,5.533-2.348
			c-1.396-0.186-3.75,0.343-5.062,1.818L32.275,47.805l0.289-0.647c0.804-1.797,0.306-4.139-0.446-5.321
			C31.251,43.777,31.049,46.824,32.275,47.805L32.275,47.805z M34.732,44.079L34.732,44.079c-1.12-1.099-0.609-4.11,0.451-5.954
			c0.628,1.251,0.886,3.631-0.097,5.338L34.732,44.079l0.524-0.48c1.454-1.336,3.849-1.627,5.219-1.304
			C38.906,43.737,36.065,44.912,34.732,44.079L34.732,44.079L34.732,44.079z M37.556,40.616L37.556,40.616l0.569-0.427
			c1.583-1.184,3.995-1.233,5.325-0.775C41.743,40.693,38.797,41.579,37.556,40.616l0.414-0.577c1.15-1.601,1.136-3.995,0.638-5.302
			C37.367,36.466,36.553,39.411,37.556,40.616L37.556,40.616z M40.717,37.453L40.717,37.453c-0.876-1.299,0.233-4.148,1.643-5.744
			c0.362,1.35,0.134,3.734-1.173,5.212L40.717,37.453c1.137,1.082,4.158,0.495,5.986-0.605c-1.277-0.59-3.682-0.781-5.377,0.239
			L40.717,37.453L40.717,37.453z M44.183,34.621L44.183,34.621c-0.74-1.38,0.652-4.104,2.217-5.55
			c0.224,1.38-0.246,3.728-1.696,5.069L44.183,34.621l0.643-0.304c1.79-0.846,4.162-0.416,5.373,0.299
			C48.267,35.529,45.203,35.811,44.183,34.621L44.183,34.621L44.183,34.621z M47.917,32.15l0.671-0.238
			c1.866-0.662,4.183,0.002,5.315,0.834C51.889,33.461,48.812,33.436,47.917,32.15l0.567-0.428c1.579-1.189,2.284-3.479,2.202-4.874
			C48.982,28.132,47.321,30.704,47.917,32.15L47.917,32.15L47.917,32.15z M51.883,30.065L51.883,30.065
			c-0.446-1.499,1.467-3.892,3.293-4.998c-0.06,1.395-0.994,3.604-2.685,4.629L51.883,30.065l0.692-0.17
			c1.924-0.474,4.161,0.421,5.203,1.361C55.701,31.766,52.643,31.434,51.883,30.065L51.883,30.065z M73.058,114.075L73.058,114.075
			c0.361,1.52,3.217,2.656,5.355,2.718c-0.749-1.184-2.662-2.641-4.643-2.698L73.058,114.075c-0.024-1.564,2.467-3.36,4.524-3.94
			c-0.435,1.329-1.932,3.208-3.839,3.747L73.058,114.075L73.058,114.075z M77.506,113.484c-0.183-1.553,2.113-3.589,4.102-4.371
			c-0.298,1.366-1.597,3.384-3.439,4.109L77.506,113.484l0.711-0.052c1.976-0.141,4.028,1.118,4.893,2.219
			C80.976,115.805,78.019,114.961,77.506,113.484L77.506,113.484L77.506,113.484z M81.871,112.452l0.633-0.327
			c1.76-0.905,2.846-3.042,3.005-4.432C83.61,108.67,81.532,110.925,81.871,112.452l0.702-0.123
			c1.952-0.337,4.121,0.709,5.094,1.718C85.56,114.414,82.532,113.87,81.871,112.452L81.871,112.452L81.871,112.452z M86.11,110.989
			L86.11,110.989c-0.492-1.485,1.346-3.936,3.137-5.097c-0.016,1.398-0.881,3.633-2.54,4.709L86.11,110.989l0.686-0.192
			c1.908-0.532,4.172,0.293,5.243,1.201C89.98,112.571,86.912,112.334,86.11,110.989L86.11,110.989L86.11,110.989z M90.18,109.109
			c0.935,1.259,4.011,1.189,6.001,0.413c-1.157-0.796-3.494-1.39-5.338-0.672L90.18,109.109c-0.641-1.428,0.94-4.049,2.604-5.383
			c0.125,1.392-0.508,3.702-2.049,4.939L90.18,109.109L90.18,109.109L90.18,109.109z M94.038,106.833
			c-0.782-1.356,0.525-4.122,2.044-5.615c0.267,1.372-0.129,3.734-1.537,5.117L94.038,106.833l0.634-0.323
			c1.762-0.901,4.147-0.543,5.38,0.134C98.15,107.615,95.096,107.991,94.038,106.833L94.038,106.833L94.038,106.833z
			 M97.646,104.183c1.17,1.047,4.171,0.367,5.965-0.789c-1.295-0.55-3.704-0.668-5.367,0.404L97.646,104.183l0.454-0.545
			c1.26-1.519,1.415-3.907,1.01-5.245C97.75,100.03,96.731,102.911,97.646,104.183L97.646,104.183L97.646,104.183z M100.968,101.186
			l0.395-0.588c1.1-1.636,1.011-4.028,0.473-5.32C100.649,97.045,99.927,100.013,100.968,101.186l0.555-0.443
			c1.545-1.232,3.954-1.356,5.299-0.939C105.155,101.135,102.238,102.111,100.968,101.186L100.968,101.186L100.968,101.186z
			 M103.968,97.874L103.968,97.874c1.358,0.792,4.161-0.471,5.686-1.959c-1.38-0.281-3.765,0.083-5.177,1.463L103.968,97.874
			c-1.154-1.064-0.737-4.089,0.265-5.964c0.667,1.23,0.999,3.601,0.07,5.338L103.968,97.874L103.968,97.874z M106.617,94.278
			c1.431,0.653,4.092-0.883,5.458-2.517c-1.401-0.142-3.737,0.459-5.002,1.973L106.617,94.278l0.269-0.654
			c0.748-1.822,0.178-4.147-0.611-5.306C105.468,90.284,105.36,93.335,106.617,94.278L106.617,94.278L106.617,94.278z
			 M108.888,90.437L108.888,90.437c1.491,0.506,3.983-1.288,5.176-3.05c-1.409-0.001-3.672,0.829-4.778,2.462L108.888,90.437
			c-1.346-0.812-1.548-3.859-0.945-5.896c0.902,1.074,1.705,3.331,1.146,5.216L108.888,90.437L108.888,90.437z M110.757,86.387
			c1.535,0.356,3.832-1.678,4.84-3.55c-1.401,0.139-3.57,1.192-4.504,2.927L110.757,86.387c-1.421-0.673-1.932-3.683-1.538-5.769
			c1.007,0.977,2.035,3.142,1.67,5.075L110.757,86.387L110.757,86.387L110.757,86.387z M112.207,82.174L112.207,82.174
			c1.563,0.199,3.642-2.054,4.455-4.016c-1.381,0.278-3.431,1.542-4.184,3.36L112.207,82.174c-1.483-0.528-2.297-3.473-2.116-5.588
			c1.1,0.872,2.343,2.924,2.176,4.882L112.207,82.174L112.207,82.174z M113.222,77.835c1.575,0.043,3.416-2.406,4.025-4.441
			c-1.346,0.416-3.257,1.878-3.822,3.763L113.222,77.835c-1.529-0.377-2.637-3.225-2.673-5.346c1.184,0.757,2.629,2.674,2.661,4.639
			L113.222,77.835L113.222,77.835L113.222,77.835z M113.791,73.418L113.791,73.418c1.572-0.114,3.154-2.735,3.555-4.819
			c-1.296,0.548-3.05,2.193-3.422,4.125L113.791,73.418c-1.56-0.222-2.952-2.945-3.202-5.051c1.254,0.635,2.886,2.396,3.118,4.348
			L113.791,73.418L113.791,73.418z M113.909,68.968l-0.155-0.69c-0.429-1.919-2.232-3.509-3.544-4.015
			C110.673,66.333,112.335,68.902,113.909,68.968l0.062-0.704c0.173-1.96,1.751-3.771,2.985-4.445
			C116.77,65.932,115.461,68.697,113.909,68.968L113.909,68.968L113.909,68.968z M113.575,64.529
			c1.517-0.426,2.539-3.306,2.51-5.428c-1.16,0.794-2.546,2.755-2.519,4.72L113.575,64.529c-1.573,0.092-3.487-2.298-4.158-4.311
			c1.358,0.372,3.313,1.774,3.934,3.64L113.575,64.529L113.575,64.529L113.575,64.529z M112.791,60.145
			c1.466-0.575,2.191-3.542,1.947-5.649c-1.074,0.906-2.254,2.995-2.028,4.948L112.791,60.145c-1.555,0.25-3.702-1.937-4.575-3.873
			c1.389,0.236,3.477,1.434,4.284,3.228L112.791,60.145L112.791,60.145L112.791,60.145z M111.568,55.864L111.568,55.864
			c1.4-0.718,1.82-3.743,1.363-5.816c-0.976,1.01-1.938,3.206-1.515,5.125L111.568,55.864c-1.523,0.402-3.881-1.558-4.945-3.397
			c1.405,0.094,3.604,1.079,4.59,2.783L111.568,55.864L111.568,55.864z M109.915,51.726L109.915,51.726l-0.415-0.575
			c-1.155-1.596-3.442-2.356-4.85-2.31C105.896,50.564,108.441,52.279,109.915,51.726l-0.221-0.671
			c-0.616-1.868,0.119-4.149,0.988-5.25C111.346,47.82,111.236,50.871,109.915,51.726L109.915,51.726z M107.851,47.774
			c-1.411,0.698-4.117-0.754-5.531-2.344c1.396-0.187,3.749,0.34,5.059,1.814L107.851,47.774l-0.288-0.646
			c-0.803-1.797-0.303-4.139,0.45-5.321C108.878,43.746,109.078,46.792,107.851,47.774L107.851,47.774L107.851,47.774z
			 M105.396,44.05c1.122-1.1,0.614-4.111-0.445-5.953c-0.629,1.252-0.888,3.632,0.093,5.338L105.396,44.05l-0.523-0.48
			c-1.453-1.335-3.848-1.624-5.219-1.3C101.223,43.711,104.063,44.884,105.396,44.05L105.396,44.05L105.396,44.05L105.396,44.05z
			 M102.575,40.59L102.575,40.59l-0.568-0.426c-1.582-1.182-3.994-1.23-5.325-0.771C98.389,40.67,101.334,41.553,102.575,40.59
			l-0.413-0.576c-1.149-1.6-1.133-3.994-0.634-5.302C102.768,36.439,103.58,39.384,102.575,40.59L102.575,40.59z M99.417,37.428
			c0.877-1.3-0.229-4.148-1.638-5.743c-0.364,1.351-0.138,3.734,1.169,5.211L99.417,37.428c-1.137,1.083-4.157,0.498-5.985-0.6
			c1.278-0.591,3.682-0.784,5.376,0.234L99.417,37.428L99.417,37.428L99.417,37.428z M95.954,34.6
			c0.741-1.381-0.649-4.104-2.213-5.549c-0.225,1.381,0.242,3.727,1.692,5.067L95.954,34.6l-0.643-0.304
			c-1.789-0.845-4.162-0.412-5.373,0.304C91.869,35.511,94.932,35.791,95.954,34.6L95.954,34.6L95.954,34.6L95.954,34.6z
			 M92.222,32.132c0.597-1.447-1.062-4.017-2.765-5.3c-0.084,1.395,0.62,3.685,2.197,4.872L92.222,32.132
			c-0.895,1.287-3.973,1.314-5.986,0.601c1.133-0.833,3.45-1.499,5.316-0.839L92.222,32.132L92.222,32.132z"/>
	</g>
	<g>
		<defs>
			<polygon id="SVGID_3_" points="86.005,61.053 106.062,54.313 111.875,56.875 122.562,44.438 120.516,71.5 112.514,99.509 
				92.007,115.515 85.005,111.513 88.006,102.51 			"/>
		</defs>
		<clipPath id="SVGID_4_">
			<use xlink:href="#SVGID_3_"  style="overflow:visible;"/>
		</clipPath>
		<path class="st3" d="M88.258,30.05c-0.761,1.37-3.82,1.703-5.896,1.195c1.043-0.941,3.281-1.837,5.204-1.365L88.258,30.05
			l-0.608-0.369c-1.69-1.023-2.623-3.231-2.681-4.627C86.793,26.159,88.705,28.551,88.258,30.05L88.258,30.05z M70.045,112.892
			L70.045,112.892c0.652,0,1.179,0.523,1.179,1.17c0,0.645-0.528,1.169-1.18,1.17s-1.179-0.523-1.179-1.169
			C68.866,113.417,69.393,112.892,70.045,112.892L70.045,112.892z M85.637,28.836L85.637,28.836L85.1,28.372
			c-1.493-1.292-3.896-1.509-5.256-1.145C81.455,28.621,84.329,29.711,85.637,28.836L85.637,28.836z M54.609,28.849L54.609,28.849
			c1.307,0.874,4.182-0.218,5.794-1.613c-1.36-0.363-3.763-0.145-5.257,1.149L54.609,28.849L54.609,28.849z M67.011,114.078
			L67.011,114.078c-0.362,1.521-3.219,2.659-5.357,2.722c0.75-1.184,2.664-2.643,4.645-2.702L67.011,114.078
			c0.025-1.564-2.464-3.358-4.521-3.936c0.435,1.329,1.929,3.207,3.836,3.744L67.011,114.078L67.011,114.078z M62.564,113.491
			L62.564,113.491c0.184-1.553-2.11-3.587-4.098-4.367c0.297,1.365,1.593,3.383,3.436,4.106L62.564,113.491l-0.711-0.051
			c-1.976-0.139-4.028,1.121-4.895,2.223C59.092,115.814,62.049,114.967,62.564,113.491L62.564,113.491z M58.199,112.462
			L58.199,112.462c-0.663,1.418-3.691,1.965-5.798,1.6c0.974-1.011,3.143-2.058,5.095-1.723L58.199,112.462
			c0.34-1.527-1.736-3.781-3.633-4.755c0.156,1.389,1.242,3.526,3,4.429L58.199,112.462L58.199,112.462z M53.962,111.002
			L53.962,111.002c0.493-1.486-1.343-3.935-3.132-5.094c0.015,1.398,0.877,3.632,2.536,4.707L53.962,111.002l-0.686-0.191
			c-1.908-0.531-4.172,0.297-5.244,1.205C50.09,112.588,53.158,112.348,53.962,111.002L53.962,111.002z M49.893,109.125
			L49.893,109.125c-0.936,1.26-4.012,1.192-6.002,0.418c1.158-0.797,3.495-1.393,5.34-0.676L49.893,109.125
			c0.642-1.428-0.937-4.049-2.599-5.381c-0.127,1.392,0.504,3.701,2.045,4.937L49.893,109.125L49.893,109.125z M46.037,106.852
			L46.037,106.852c0.784-1.357-0.521-4.121-2.039-5.614c-0.268,1.372,0.126,3.734,1.533,5.116L46.037,106.852l-0.633-0.322
			c-1.761-0.9-4.147-0.54-5.38,0.138C41.924,107.638,44.978,108.012,46.037,106.852L46.037,106.852z M42.431,104.205L42.431,104.205
			c-1.171,1.048-4.171,0.37-5.964-0.784c1.296-0.551,3.705-0.671,5.366,0.399L42.431,104.205l-0.453-0.545
			c-1.26-1.518-1.412-3.906-1.006-5.244C42.331,100.053,43.348,102.933,42.431,104.205L42.431,104.205z M39.113,101.212
			c-1.271,0.926-4.187-0.048-5.854-1.377c1.344-0.418,3.754-0.297,5.298,0.934L39.113,101.212c1.041-1.175,0.322-4.142-0.864-5.907
			c-0.539,1.292-0.63,3.684,0.469,5.319L39.113,101.212L39.113,101.212L39.113,101.212z M36.115,97.902L36.115,97.902
			c-1.358,0.793-4.16-0.467-5.683-1.955c1.38-0.282,3.765,0.08,5.176,1.459L36.115,97.902c1.156-1.065,0.741-4.089-0.26-5.963
			c-0.668,1.231-1.001,3.602-0.074,5.338L36.115,97.902L36.115,97.902z M33.469,94.308L33.469,94.308
			c-1.432,0.655-4.091-0.88-5.455-2.512c1.401-0.143,3.737,0.456,5.001,1.969L33.469,94.308L33.2,93.654
			c-0.746-1.822-0.173-4.146,0.615-5.306C34.621,90.313,34.726,93.364,33.469,94.308L33.469,94.308z M31.201,90.469L31.201,90.469
			l-0.2-0.679c-0.557-1.885,0.247-4.143,1.15-5.217C32.753,86.608,32.548,89.655,31.201,90.469l-0.397-0.588
			c-1.104-1.631-3.367-2.459-4.775-2.458C27.22,89.183,29.71,90.976,31.201,90.469L31.201,90.469z M29.335,86.42L29.335,86.42
			c-1.535,0.357-3.83-1.675-4.837-3.546c1.402,0.138,3.569,1.189,4.502,2.923L29.335,86.42c1.422-0.675,1.935-3.685,1.544-5.77
			c-1.007,0.978-2.037,3.143-1.674,5.076L29.335,86.42L29.335,86.42z M27.889,82.208L27.889,82.208l-0.06-0.705
			c-0.165-1.958,1.079-4.011,2.181-4.884C30.188,78.733,29.372,81.679,27.889,82.208l-0.271-0.655
			c-0.752-1.818-2.8-3.08-4.181-3.357C24.248,80.158,26.326,82.409,27.889,82.208L27.889,82.208z M26.878,77.871l0.012-0.707
			c0.034-1.966,1.481-3.883,2.665-4.642C29.518,74.643,28.408,77.492,26.878,77.871l-0.203-0.678
			c-0.563-1.884-2.474-3.345-3.819-3.76C23.464,75.467,25.303,77.915,26.878,77.871L26.878,77.871L26.878,77.871z M26.313,73.454
			L26.313,73.454c-1.572-0.113-3.152-2.732-3.551-4.817c1.296,0.547,3.048,2.191,3.418,4.123L26.313,73.454
			c1.56-0.223,2.954-2.947,3.206-5.053c-1.255,0.636-2.888,2.398-3.122,4.35L26.313,73.454L26.313,73.454z M26.199,69.004
			c-1.553-0.27-2.859-3.034-3.043-5.147c1.233,0.673,2.81,2.483,2.981,4.443L26.199,69.004c1.574-0.067,3.238-2.637,3.702-4.708
			c-1.313,0.507-3.117,2.098-3.548,4.018L26.199,69.004L26.199,69.004L26.199,69.004z M26.536,64.565L26.536,64.565
			c-1.516-0.425-2.536-3.304-2.504-5.426c1.159,0.794,2.543,2.752,2.515,4.718L26.536,64.565c1.573,0.091,3.489-2.301,4.162-4.315
			c-1.358,0.373-3.314,1.777-3.938,3.643L26.536,64.565L26.536,64.565z M27.323,60.18l0.291-0.645
			c0.809-1.795,2.898-2.995,4.286-3.232C31.027,58.241,28.879,60.428,27.323,60.18l0.082-0.701c0.228-1.953-0.95-4.041-2.024-4.946
			C25.136,56.64,25.858,59.607,27.323,60.18L27.323,60.18L27.323,60.18z M28.551,55.898c-1.4-0.717-1.817-3.742-1.358-5.815
			c0.975,1.009,1.936,3.204,1.511,5.124L28.551,55.898c1.522,0.401,3.882-1.561,4.948-3.401c-1.405,0.096-3.605,1.082-4.592,2.787
			L28.551,55.898L28.551,55.898L28.551,55.898z M30.207,51.758L30.207,51.758c-1.32-0.854-1.428-3.905-0.761-5.921
			c0.868,1.1,1.601,3.381,0.983,5.249L30.207,51.758c1.474,0.552,4.02-1.165,5.268-2.889c-1.408-0.044-3.696,0.717-4.852,2.314
			L30.207,51.758L30.207,51.758z M32.275,47.805L32.275,47.805c1.41,0.697,4.117-0.757,5.533-2.348
			c-1.396-0.186-3.75,0.343-5.062,1.818L32.275,47.805l0.289-0.647c0.804-1.797,0.306-4.139-0.446-5.321
			C31.251,43.777,31.049,46.824,32.275,47.805L32.275,47.805z M34.732,44.079L34.732,44.079c-1.12-1.099-0.609-4.11,0.451-5.954
			c0.628,1.251,0.886,3.631-0.097,5.338L34.732,44.079l0.524-0.48c1.454-1.336,3.849-1.627,5.219-1.304
			C38.906,43.737,36.065,44.912,34.732,44.079L34.732,44.079L34.732,44.079z M37.556,40.616L37.556,40.616l0.569-0.427
			c1.583-1.184,3.995-1.233,5.325-0.775C41.743,40.693,38.797,41.579,37.556,40.616l0.414-0.577c1.15-1.601,1.136-3.995,0.638-5.302
			C37.367,36.466,36.553,39.411,37.556,40.616L37.556,40.616z M40.717,37.453L40.717,37.453c-0.876-1.299,0.233-4.148,1.643-5.744
			c0.362,1.35,0.134,3.734-1.173,5.212L40.717,37.453c1.137,1.082,4.158,0.495,5.986-0.605c-1.277-0.59-3.682-0.781-5.377,0.239
			L40.717,37.453L40.717,37.453z M44.183,34.621L44.183,34.621c-0.74-1.38,0.652-4.104,2.217-5.55
			c0.224,1.38-0.246,3.728-1.696,5.069L44.183,34.621l0.643-0.304c1.79-0.846,4.162-0.416,5.373,0.299
			C48.267,35.529,45.203,35.811,44.183,34.621L44.183,34.621L44.183,34.621z M47.917,32.15l0.671-0.238
			c1.866-0.662,4.183,0.002,5.315,0.834C51.889,33.461,48.812,33.436,47.917,32.15l0.567-0.428c1.579-1.189,2.284-3.479,2.202-4.874
			C48.982,28.132,47.321,30.704,47.917,32.15L47.917,32.15L47.917,32.15z M51.883,30.065L51.883,30.065
			c-0.446-1.499,1.467-3.892,3.293-4.998c-0.06,1.395-0.994,3.604-2.685,4.629L51.883,30.065l0.692-0.17
			c1.924-0.474,4.161,0.421,5.203,1.361C55.701,31.766,52.643,31.434,51.883,30.065L51.883,30.065z M73.058,114.075L73.058,114.075
			c0.361,1.52,3.217,2.656,5.355,2.718c-0.749-1.184-2.662-2.641-4.643-2.698L73.058,114.075c-0.024-1.564,2.467-3.36,4.524-3.94
			c-0.435,1.329-1.932,3.208-3.839,3.747L73.058,114.075L73.058,114.075z M77.506,113.484c-0.183-1.553,2.113-3.589,4.102-4.371
			c-0.298,1.366-1.597,3.384-3.439,4.109L77.506,113.484l0.711-0.052c1.976-0.141,4.028,1.118,4.893,2.219
			C80.976,115.805,78.019,114.961,77.506,113.484L77.506,113.484L77.506,113.484z M81.871,112.452l0.633-0.327
			c1.76-0.905,2.846-3.042,3.005-4.432C83.61,108.67,81.532,110.925,81.871,112.452l0.702-0.123
			c1.952-0.337,4.121,0.709,5.094,1.718C85.56,114.414,82.532,113.87,81.871,112.452L81.871,112.452L81.871,112.452z M86.11,110.989
			L86.11,110.989c-0.492-1.485,1.346-3.936,3.137-5.097c-0.016,1.398-0.881,3.633-2.54,4.709L86.11,110.989l0.686-0.192
			c1.908-0.532,4.172,0.293,5.243,1.201C89.98,112.571,86.912,112.334,86.11,110.989L86.11,110.989L86.11,110.989z M90.18,109.109
			c0.935,1.259,4.011,1.189,6.001,0.413c-1.157-0.796-3.494-1.39-5.338-0.672L90.18,109.109c-0.641-1.428,0.94-4.049,2.604-5.383
			c0.125,1.392-0.508,3.702-2.049,4.939L90.18,109.109L90.18,109.109L90.18,109.109z M94.038,106.833
			c-0.782-1.356,0.525-4.122,2.044-5.615c0.267,1.372-0.129,3.734-1.537,5.117L94.038,106.833l0.634-0.323
			c1.762-0.901,4.147-0.543,5.38,0.134C98.15,107.615,95.096,107.991,94.038,106.833L94.038,106.833L94.038,106.833z
			 M97.646,104.183c1.17,1.047,4.171,0.367,5.965-0.789c-1.295-0.55-3.704-0.668-5.367,0.404L97.646,104.183l0.454-0.545
			c1.26-1.519,1.415-3.907,1.01-5.245C97.75,100.03,96.731,102.911,97.646,104.183L97.646,104.183L97.646,104.183z M100.968,101.186
			l0.395-0.588c1.1-1.636,1.011-4.028,0.473-5.32C100.649,97.045,99.927,100.013,100.968,101.186l0.555-0.443
			c1.545-1.232,3.954-1.356,5.299-0.939C105.155,101.135,102.238,102.111,100.968,101.186L100.968,101.186L100.968,101.186z
			 M103.968,97.874L103.968,97.874c1.358,0.792,4.161-0.471,5.686-1.959c-1.38-0.281-3.765,0.083-5.177,1.463L103.968,97.874
			c-1.154-1.064-0.737-4.089,0.265-5.964c0.667,1.23,0.999,3.601,0.07,5.338L103.968,97.874L103.968,97.874z M106.617,94.278
			c1.431,0.653,4.092-0.883,5.458-2.517c-1.401-0.142-3.737,0.459-5.002,1.973L106.617,94.278l0.269-0.654
			c0.748-1.822,0.178-4.147-0.611-5.306C105.468,90.284,105.36,93.335,106.617,94.278L106.617,94.278L106.617,94.278z
			 M108.888,90.437L108.888,90.437c1.491,0.506,3.983-1.288,5.176-3.05c-1.409-0.001-3.672,0.829-4.778,2.462L108.888,90.437
			c-1.346-0.812-1.548-3.859-0.945-5.896c0.902,1.074,1.705,3.331,1.146,5.216L108.888,90.437L108.888,90.437z M110.757,86.387
			c1.535,0.356,3.832-1.678,4.84-3.55c-1.401,0.139-3.57,1.192-4.504,2.927L110.757,86.387c-1.421-0.673-1.932-3.683-1.538-5.769
			c1.007,0.977,2.035,3.142,1.67,5.075L110.757,86.387L110.757,86.387L110.757,86.387z M112.207,82.174L112.207,82.174
			c1.563,0.199,3.642-2.054,4.455-4.016c-1.381,0.278-3.431,1.542-4.184,3.36L112.207,82.174c-1.483-0.528-2.297-3.473-2.116-5.588
			c1.1,0.872,2.343,2.924,2.176,4.882L112.207,82.174L112.207,82.174z M113.222,77.835c1.575,0.043,3.416-2.406,4.025-4.441
			c-1.346,0.416-3.257,1.878-3.822,3.763L113.222,77.835c-1.529-0.377-2.637-3.225-2.673-5.346c1.184,0.757,2.629,2.674,2.661,4.639
			L113.222,77.835L113.222,77.835L113.222,77.835z M113.791,73.418L113.791,73.418c1.572-0.114,3.154-2.735,3.555-4.819
			c-1.296,0.548-3.05,2.193-3.422,4.125L113.791,73.418c-1.56-0.222-2.952-2.945-3.202-5.051c1.254,0.635,2.886,2.396,3.118,4.348
			L113.791,73.418L113.791,73.418z M113.909,68.968l-0.155-0.69c-0.429-1.919-2.232-3.509-3.544-4.015
			C110.673,66.333,112.335,68.902,113.909,68.968l0.062-0.704c0.173-1.96,1.751-3.771,2.985-4.445
			C116.77,65.932,115.461,68.697,113.909,68.968L113.909,68.968L113.909,68.968z M113.575,64.529
			c1.517-0.426,2.539-3.306,2.51-5.428c-1.16,0.794-2.546,2.755-2.519,4.72L113.575,64.529c-1.573,0.092-3.487-2.298-4.158-4.311
			c1.358,0.372,3.313,1.774,3.934,3.64L113.575,64.529L113.575,64.529L113.575,64.529z M112.791,60.145
			c1.466-0.575,2.191-3.542,1.947-5.649c-1.074,0.906-2.254,2.995-2.028,4.948L112.791,60.145c-1.555,0.25-3.702-1.937-4.575-3.873
			c1.389,0.236,3.477,1.434,4.284,3.228L112.791,60.145L112.791,60.145L112.791,60.145z M111.568,55.864L111.568,55.864
			c1.4-0.718,1.82-3.743,1.363-5.816c-0.976,1.01-1.938,3.206-1.515,5.125L111.568,55.864c-1.523,0.402-3.881-1.558-4.945-3.397
			c1.405,0.094,3.604,1.079,4.59,2.783L111.568,55.864L111.568,55.864z M109.915,51.726L109.915,51.726l-0.415-0.575
			c-1.155-1.596-3.442-2.356-4.85-2.31C105.896,50.564,108.441,52.279,109.915,51.726l-0.221-0.671
			c-0.616-1.868,0.119-4.149,0.988-5.25C111.346,47.82,111.236,50.871,109.915,51.726L109.915,51.726z M107.851,47.774
			c-1.411,0.698-4.117-0.754-5.531-2.344c1.396-0.187,3.749,0.34,5.059,1.814L107.851,47.774l-0.288-0.646
			c-0.803-1.797-0.303-4.139,0.45-5.321C108.878,43.746,109.078,46.792,107.851,47.774L107.851,47.774L107.851,47.774z
			 M105.396,44.05c1.122-1.1,0.614-4.111-0.445-5.953c-0.629,1.252-0.888,3.632,0.093,5.338L105.396,44.05l-0.523-0.48
			c-1.453-1.335-3.848-1.624-5.219-1.3C101.223,43.711,104.063,44.884,105.396,44.05L105.396,44.05L105.396,44.05L105.396,44.05z
			 M102.575,40.59L102.575,40.59l-0.568-0.426c-1.582-1.182-3.994-1.23-5.325-0.771C98.389,40.67,101.334,41.553,102.575,40.59
			l-0.413-0.576c-1.149-1.6-1.133-3.994-0.634-5.302C102.768,36.439,103.58,39.384,102.575,40.59L102.575,40.59z M99.417,37.428
			c0.877-1.3-0.229-4.148-1.638-5.743c-0.364,1.351-0.138,3.734,1.169,5.211L99.417,37.428c-1.137,1.083-4.157,0.498-5.985-0.6
			c1.278-0.591,3.682-0.784,5.376,0.234L99.417,37.428L99.417,37.428L99.417,37.428z M95.954,34.6
			c0.741-1.381-0.649-4.104-2.213-5.549c-0.225,1.381,0.242,3.727,1.692,5.067L95.954,34.6l-0.643-0.304
			c-1.789-0.845-4.162-0.412-5.373,0.304C91.869,35.511,94.932,35.791,95.954,34.6L95.954,34.6L95.954,34.6L95.954,34.6z
			 M92.222,32.132c0.597-1.447-1.062-4.017-2.765-5.3c-0.084,1.395,0.62,3.685,2.197,4.872L92.222,32.132
			c-0.895,1.287-3.973,1.314-5.986,0.601c1.133-0.833,3.45-1.499,5.316-0.839L92.222,32.132L92.222,32.132z"/>
	</g>
	<path class="st4" d="M112.189,57.343L112.189,57.343l0.032-0.709c0.09-1.973-1.228-3.993-2.356-4.835
		C109.768,53.927,110.693,56.858,112.189,57.343L112.189,57.343z"/>
	<path class="st4" d="M27.982,57.343L27.982,57.343l-0.032-0.709c-0.09-1.973,1.228-3.993,2.356-4.835
		C30.403,53.927,29.478,56.858,27.982,57.343L27.982,57.343z"/>
</g>
</svg>
